<?xml version="1.0" encoding="UTF-8" standalone="no"?>
<svg
   version="1.1"
   viewBox="-5 -10 110 110"
   id="svg2"
   sodipodi:docname="bell.svg"

   inkscape:version="1.4.2 (2aeb623e1d, 2025-05-12)"
   xmlns:inkscape="http://www.inkscape.org/namespaces/inkscape"
   xmlns:sodipodi="http://sodipodi.sourceforge.net/DTD/sodipodi-0.dtd"
   xmlns="http://www.w3.org/2000/svg"
   xmlns:svg="http://www.w3.org/2000/svg">
  <defs
     id="defs2" />
  <sodipodi:namedview
     id="namedview2"
     pagecolor="#ffffff"
     bordercolor="#999999"
     borderopacity="1"
     inkscape:showpageshadow="2"
     inkscape:pageopacity="0"
     inkscape:pagecheckerboard="0"
     inkscape:deskcolor="#d1d1d1"
     inkscape:zoom="4.4364403"
     inkscape:cx="74.722069"
     inkscape:cy="65.705831"
     inkscape:window-width="1920"
     inkscape:window-height="1011"
     inkscape:window-x="0"
     inkscape:window-y="0"
     inkscape:window-maximized="1"
     inkscape:current-layer="svg2" />
  <path
     d="m 82.316805,70.24195 c -1.7344,-2.2031 -3.1875,-4.5938 -4.3281,-7.125 -1.9062,-4.25 -2.9219,-8.7812 -2.9844,-13.422 v -12.5 c 0,-11.062 -7.2188,-20.438 -17.188,-23.734 v -2.8281 c 0,-2.0625 -0.8125,-4.0312 -2.2969,-5.5312 -1.4844,-1.4688 -3.4531,-2.2812 -5.5156,-2.2812 -4.3125,0 -7.8125,3.5 -7.8125,7.8125 v 2.8281 c -9.9688,3.2969 -17.188,12.672 -17.188,23.734 v 12.469 c -0.07813,4.6719 -1.0781,9.2031 -2.9844,13.453 -1.1406,2.5312 -2.5938,4.9375 -4.3281,7.125 -1.1094,1.4219 -1.3281,3.2969 -0.53125,4.9219 0.79685,1.625 2.4062,2.6406 4.2188,2.6406 h 16.547 c 1.3906,5.4219 6.3594,9.375 12.078,9.375 5.7186,0 10.688,-3.9531 12.078,-9.375 h 16.547 c 1.8125,0 3.4375,-1.0156 4.2188,-2.6406 0.7813,-1.625 0.57812,-3.5156 -0.53125,-4.9219 z m -37,-59.609 c 0,-2.5781 2.1094,-4.6875 4.6875,-4.6875 1.2344,0 2.4219,0.48438 3.3125,1.3594 0.89062,0.90625 1.375,2.0781 1.375,3.3281 v 2.0156 c -1.5156,-0.29688 -3.0781,-0.45312 -4.6875,-0.45312 -1.6094,0 -3.1719,0.17188 -4.6875,0.45312 z m 4.6875,73.438 c -4.0156,0 -7.5156,-2.5938 -8.8125,-6.25 h 17.641 c -1.2969,3.6562 -4.8125,6.25 -8.8125,6.25 z m 30.047,-10.25 c -0.26562,0.54688 -0.79688,0.875 -1.4062,0.875 h -57.266 c -0.60938,0 -1.1406,-0.32812 -1.4062,-0.875 -0.2656,-0.54688 -0.20312,-1.1562 0.17188,-1.625 1.8906,-2.3906 3.4844,-5.0156 4.7188,-7.7812 2.0781,-4.6406 3.1875,-9.5781 3.2656,-14.703 v -12.5 c 0,-12.062 9.8125,-21.875 21.875,-21.875 12.0625,0 21.875,9.8125 21.875,21.875 v 12.531 c 0.07813,5.0938 1.1719,10.031 3.2656,14.672 1.25,2.7656 2.8281,5.3906 4.7188,7.7812 0.375,0.46875 0.4375,1.0781 0.17188,1.625 z"
     id="path1" />
</svg>
