<?xml version="1.0" encoding="UTF-8" standalone="no"?>
<svg
   viewBox="0 0 64 64"
   x="0px"
   y="0px"
   version="1.1"
   id="svg2"
   sodipodi:docname="sales.svg"
   inkscape:version="1.4.2 (2aeb623e1d, 2025-05-12)"
   xmlns:inkscape="http://www.inkscape.org/namespaces/inkscape"
   xmlns:sodipodi="http://sodipodi.sourceforge.net/DTD/sodipodi-0.dtd"
   xmlns="http://www.w3.org/2000/svg"
   xmlns:svg="http://www.w3.org/2000/svg">
  <defs
     id="defs2" />
  <sodipodi:namedview
     id="namedview2"
     pagecolor="#ffffff"
     bordercolor="#999999"
     borderopacity="1"
     inkscape:showpageshadow="2"
     inkscape:pageopacity="0"
     inkscape:pagecheckerboard="0"
     inkscape:deskcolor="#d1d1d1"
     inkscape:zoom="5.29375"
     inkscape:cx="29.940968"
     inkscape:cy="60.731995"
     inkscape:window-width="1920"
     inkscape:window-height="1011"
     inkscape:window-x="0"
     inkscape:window-y="0"
     inkscape:window-maximized="1"
     inkscape:current-layer="svg2" />

  <g
     id="g1">
    <path
       d="m 56.1,13 a 5.72,5.72 0 0 0 -4,9.87 l -10,14.92 A 5.52,5.52 0 0 0 40,37.35 5.7,5.7 0 0 0 37.53,37.91 l -8.5,-8.83 a 5.64,5.64 0 0 0 0.64,-2.62 5.74,5.74 0 1 0 -11.47,0 5.61,5.61 0 0 0 0.87,3 L 10,40 A 5.65,5.65 0 0 0 7.9,39.59 5.77,5.77 0 1 0 12.41,41.8 L 21.29,31.56 A 5.67,5.67 0 0 0 27,31.3 l 8.25,8.57 a 5.74,5.74 0 1 0 10.49,3.21 5.79,5.79 0 0 0 -1.21,-3.52 L 54.79,24.28 A 5.66,5.66 0 0 0 56.1,24.44 5.74,5.74 0 1 0 56.1,13 Z M 7.9,48 A 2.74,2.74 0 1 1 10.64,45.27 2.74,2.74 0 0 1 7.9,48 Z M 21.23,26.46 A 2.74,2.74 0 1 1 24,29.2 2.74,2.74 0 0 1 21.23,26.46 Z M 40,45.82 A 2.74,2.74 0 1 1 42.74,43.08 2.74,2.74 0 0 1 40,45.82 Z M 56.1,21.44 a 2.74,2.74 0 1 1 2.74,-2.74 2.74,2.74 0 0 1 -2.74,2.74 z" />
  </g>
</svg>
