<?xml version="1.0" encoding="UTF-8" standalone="no"?>
<svg
   data-name="Layer 1"
   viewBox="0 0 99.953423 99.989792"
   x="0px"
   y="0px"
   version="1.1"
   id="svg2"
   sodipodi:docname="settings.svg"

   inkscape:version="1.4.2 (2aeb623e1d, 2025-05-12)"
   xmlns:inkscape="http://www.inkscape.org/namespaces/inkscape"
   xmlns:sodipodi="http://sodipodi.sourceforge.net/DTD/sodipodi-0.dtd"
   xmlns="http://www.w3.org/2000/svg"
   xmlns:svg="http://www.w3.org/2000/svg">
  <sodipodi:namedview
     id="namedview1"
     pagecolor="#ffffff"
     bordercolor="#999999"
     borderopacity="1"
     inkscape:showpageshadow="2"
     inkscape:pageopacity="0"
     inkscape:pagecheckerboard="0"
     inkscape:deskcolor="#d1d1d1"
     inkscape:zoom="5.8071918"
     inkscape:cx="34.353954"
     inkscape:cy="46.063572"
     inkscape:window-width="1920"
     inkscape:window-height="1011"
     inkscape:window-x="0"
     inkscape:window-y="0"
     inkscape:window-maximized="1"
     inkscape:current-layer="svg2" />
  <defs
     id="defs2" />
  <g
     id="g1"
     transform="matrix(0.88112645,0,0,0.88112645,5.9138631,5.9427942)">
    <path
       d="M 99.67,44.46 C 99.51,43.05 97.87,42 96.45,42 A 11,11 0 0 1 88.89,22.79 2.78,2.78 0 0 0 89.2,19 50.4,50.4 0 0 0 81.27,11 2.79,2.79 0 0 0 77.46,11.31 11.49,11.49 0 0 1 65,14.12 11.14,11.14 0 0 1 58.26,3.26 2.8,2.8 0 0 0 55.8,0.33 50.37,50.37 0 0 0 44.56,0.3 2.79,2.79 0 0 0 42.08,3.15 11.11,11.11 0 0 1 35.23,13.81 11.6,11.6 0 0 1 22.85,11 a 2.78,2.78 0 0 0 -3.77,-0.31 49.64,49.64 0 0 0 -8.08,8 2.81,2.81 0 0 0 0.29,3.81 11.07,11.07 0 0 1 2.83,12.5 11.56,11.56 0 0 1 -10.88,6.72 2.72,2.72 0 0 0 -2.88,2.46 49.15,49.15 0 0 0 0,11.36 C 0.49,57 2.19,58 3.62,58 A 11,11 0 0 1 13.9,64.86 11.13,11.13 0 0 1 11.11,77.22 2.78,2.78 0 0 0 10.8,81 a 49.46,49.46 0 0 0 7.91,8 2.79,2.79 0 0 0 3.81,-0.29 11.53,11.53 0 0 1 12.48,-2.83 11.07,11.07 0 0 1 6.75,10.85 2.8,2.8 0 0 0 2.46,2.93 51.51,51.51 0 0 0 5.76,0.33 47,47 0 0 0 5.49,-0.31 2.79,2.79 0 0 0 2.48,-2.87 11.09,11.09 0 0 1 6.83,-10.66 11.54,11.54 0 0 1 12.35,2.85 2.78,2.78 0 0 0 3.77,0.31 50.43,50.43 0 0 0 8.08,-8 2.79,2.79 0 0 0 -0.29,-3.81 11,11 0 0 1 7.44,-19.25 h 0.62 a 2.8,2.8 0 0 0 2.93,-2.46 51.24,51.24 0 0 0 0,-11.33 z M 50.08,66.77 A 16.67,16.67 0 1 1 66.75,50.1 16.69,16.69 0 0 1 50.08,66.77 Z"
       id="path1" />
  </g>
</svg>
