<?xml version="1.0" encoding="UTF-8" standalone="no"?>
<svg
   version="1.1"
   viewBox="-5 -10 71.743156 67.749199"
   id="svg4"
   sodipodi:docname="signout.svg"
   width="71.743156"
   height="67.749199"
   inkscape:version="1.4.2 (2aeb623e1d, 2025-05-12)"
   xmlns:inkscape="http://www.inkscape.org/namespaces/inkscape"
   xmlns:sodipodi="http://sodipodi.sourceforge.net/DTD/sodipodi-0.dtd"
   xmlns="http://www.w3.org/2000/svg"
   xmlns:svg="http://www.w3.org/2000/svg">
  <defs
     id="defs4" />
  <sodipodi:namedview
     id="namedview4"
     pagecolor="#ffffff"
     bordercolor="#999999"
     borderopacity="1"
     inkscape:showpageshadow="2"
     inkscape:pageopacity="0"
     inkscape:pagecheckerboard="0"
     inkscape:deskcolor="#d1d1d1"
     inkscape:zoom="6.2740741"
     inkscape:cx="35.861865"
     inkscape:cy="55.705431"
     inkscape:window-width="1920"
     inkscape:window-height="1011"
     inkscape:window-x="0"
     inkscape:window-y="0"
     inkscape:window-maximized="1"
     inkscape:current-layer="svg4" />
  <path
     d="m 41.5307,6.406 c 0,9.0625 -7.3438,16.406 -16.406,16.406 -9.0622,0 -16.406,-7.3438 -16.406,-16.406 0,-9.0622 7.3438,-16.406 16.406,-16.406 9.0622,0 16.406,7.3438 16.406,16.406"
     id="path1" />
  <path
     d="m 34.8747,28.187 c -4.2188,3.875 -6.5625,9.125 -6.5625,14.781 0,4.4375 1.4688,8.6875 4.25,12.25 0.375,0.5 0.4375,1.125 0.1875,1.6562 -0.28125,0.53125 -0.8125,0.875 -1.4062,0.875 H -3.4375 C -4.28125,57.7492 -5,57.0617 -5,56.1867 v -8.1875 c 0,-12.438 10.125,-22.531 22.531,-22.531 h 16.312 c 0.625,0 1.2188,0.375 1.4375,1 0.25,0.59375 0.09375,1.2812 -0.40625,1.7188 z"
     id="path2" />
  <path
     d="m 66.0547,42.566 -8.793,-8.793 c -0.91406,-0.91406 -2.3984,-0.91406 -3.3125,0 -0.91406,0.91406 -0.91406,2.3984 0,3.3125 l 4.793,4.793 h -21.633 c -1.293,0 -2.3438,1.0508 -2.3438,2.3438 0,1.293 1.0508,2.3438 2.3438,2.3438 h 21.633 l -4.793,4.793 c -0.91797,0.91797 -0.89844,2.4688 0.05078,3.3633 0.91016,0.85547 2.3867,0.82812 3.2617,-0.04687 l 8.793,-8.793 c 0.91797,-0.91797 0.91797,-2.4023 0,-3.3164 z"
     id="path3" />
</svg>
