<?xml version="1.0" encoding="UTF-8" standalone="no"?>
<svg
   version="1.1"
   x="0px"
   y="0px"
   viewBox="0 0 100.0631 99.949997"
   xml:space="preserve"
   id="svg8"
   sodipodi:docname="noun-tick-3136000.svg"
   width="100.0631"
   height="99.949997"
   inkscape:version="1.4.2 (2aeb623e1d, 2025-05-12)"
   xmlns:inkscape="http://www.inkscape.org/namespaces/inkscape"
   xmlns:sodipodi="http://sodipodi.sourceforge.net/DTD/sodipodi-0.dtd"
   xmlns="http://www.w3.org/2000/svg"
   xmlns:svg="http://www.w3.org/2000/svg">
   <path
    d="m 85.3,14.6 c -19.5,-19.5 -51.2,-19.5 -70.7,0 -19.5,19.5 -19.5,51.2 0,70.7 19.5,19.5 51.2,19.5 70.7,0 0,0 0,0 0,0 C 104.8,66 105,34.4 85.6,14.9 85.5,14.8 85.4,14.7 85.3,14.6 Z m -63.9,38 z M 42.9,74.1 21.4,52.6 32.8,41.2 43.1,52.4 70.9,29.3 l 8.3,8.4 z"
    id="path1" /><line
    x1="21.4"
    y1="52.599998"
    x2="21.4"
    y2="52.599998"
    id="line1" />
  </svg>
