<?xml version="1.0" encoding="UTF-8" standalone="no"?>
<!-- Uploaded to: SVG Repo, www.svgrepo.com, Generator: SVG Repo Mixer Tools -->

<svg
   fill="#000000"
   width="800px"
   height="800px"
   viewBox="0 0 24 24"
   version="1.1"
   id="svg1"
   sodipodi:docname="wallet-money-payment-svgrepo-com.svg"
   inkscape:version="1.4.2 (2aeb623e1d, 2025-05-12)"
   xmlns:inkscape="http://www.inkscape.org/namespaces/inkscape"
   xmlns:sodipodi="http://sodipodi.sourceforge.net/DTD/sodipodi-0.dtd"
   xmlns="http://www.w3.org/2000/svg"
   xmlns:svg="http://www.w3.org/2000/svg">
  <defs
     id="defs1" />
  <sodipodi:namedview
     id="namedview1"
     pagecolor="#ffffff"
     bordercolor="#999999"
     borderopacity="1"
     inkscape:showpageshadow="2"
     inkscape:pageopacity="0"
     inkscape:pagecheckerboard="0"
     inkscape:deskcolor="#d1d1d1"
     inkscape:zoom="0.7486493"
     inkscape:cx="363.98885"
     inkscape:cy="473.51944"
     inkscape:window-width="1920"
     inkscape:window-height="1011"
     inkscape:window-x="0"
     inkscape:window-y="0"
     inkscape:window-maximized="1"
     inkscape:current-layer="wallet" />
  <g
     id="wallet">
    <path
       d="M 22,12.01757 C 21.9985,10.830149 21.163137,9.8070951 20,9.5681701 v -1.5506 c -0.0014,-1.3801178 -1.119882,-2.4985669 -2.5,-2.5 C 4.27,5.5409701 8.8779107,5.4112994 4.27,5.5409701 2.9875003,5.6568093 2.0039683,6.7298557 2,8.0175701 V 16.01757 c 0.00143,1.380118 1.1198822,2.498567 2.5,2.5 h 13 c 1.380118,-0.0014 2.498567,-1.119882 2.5,-2.5 v -1.5506 c 1.163158,-0.23889 1.998525,-1.261965 2,-2.4494 z m -4.5,5.5 H 4.5 C 3.6719384,17.516688 3.0008819,16.845632 3,16.01757 V 8.0175701 c 9.369e-4,-0.8280388 0.6719612,-1.4990631 1.5,-1.5 h 13 c 0.828039,9.369e-4 1.499063,0.6719612 1.5,1.5 v 1.5 h -1.5 c -3.333332,0 -3.333332,4.9999999 0,4.9999999 H 19 v 1.5 c -8.82e-4,0.828062 -0.671938,1.499118 -1.5,1.5 z m 2,-4 h -2 c -1.999999,0 -1.999999,-3 0,-3 h 2 c 1.999999,0 1.999999,3 0,3 z"
       id="path1"
       sodipodi:nodetypes="ccccccccccccccccccccsscccsssss" />
  </g>
</svg>
